<?xml version="1.0" encoding="UTF-8"?>
<svg xmlns="http://www.w3.org/2000/svg" width="660" height="146" viewBox="0 0 660 146" fill="none">
  <path fill-rule="evenodd" clip-rule="evenodd" d="M180.4 87.1C180.4 87.1 182.3 89 188.7 84.3C195.1 79.6 181.1 57.8 181.1 57.8C181.1 57.8 196.3 69.4 207.4 66.9C218.5 64.4 217.5 52.5 217.5 52.5C217.5 52.5 228.9 76 238.7 74C248.6 72 228.1 19.7 228.1 19.7C228.1 19.7 242.8 30.8 249.6 28.5C256.4 26.2 263.5 0.5 263.5 0.5C263.5 0.5 269.8 26.3 277.4 28.3C285 30.3 298.6 20 298.6 20C298.6 20 279.7 69 286.7 74.3C293.8 79.6 309.7 54.3 309.7 54.3C309.7 54.3 311.2 67.7 318.3 69C325.4 70.3 345.6 58.9 345.6 58.9C345.6 58.9 336.3 72 337.3 80.4C338.3 88.7 346.6 88.2 346.6 88.2L309.5 117.5C308.2 118.6 301.9 122.6 307.2 129.9C312.5 137.2 311.7 136.5 311.7 136.5C311.7 136.5 294.4 132 265.2 132.2V145.6H260.7V132.2C231 132.8 214.8 137 214.8 137C214.8 137 220.9 127 220.9 122.7C221 118.3 180.4 87.1 180.4 87.1Z" fill="#FF0000"></path>
  <path fill-rule="evenodd" clip-rule="evenodd" d="M262.8 24.8C242.9 74.5 228 121 219.8 134.4C224.1 133.6 231 132.5 240.5 131.7C240.9 128 242.8 118.4 246.3 107.3H277.5C281 119.1 282.5 127.3 283.1 131C293.3 131.6 301 132.7 305.9 133.6C296.1 114.1 262.8 24.8 262.8 24.8ZM251.9 95.8C259 74.9 258.9 75 262.8 61.4C262.8 61.4 266.5 75.7 273.2 95.8H251.9Z" fill="white"></path>
  <path fill-rule="evenodd" clip-rule="evenodd" d="M150.6 136.8H134.7C134.7 134.6 133.2 128.4 130.2 118.2H107.3C104.2 128.2 102.6 134.4 102.6 136.8H87.6001C87.6001 135.5 91.5001 124.9 99.2001 105C106.9 85.1 110.8 74.1 110.8 72.1H129.6C129.6 74 133.1 84.8 140.1 104.5C147.1 124.2 150.6 135 150.6 136.8ZM127.6 108.7C121.9 91.6 119.1 82.4 119.1 81H118.3C118.3 82.3 115.4 91.5 109.5 108.7H127.6Z" fill="#231F20"></path>
  <path fill-rule="evenodd" clip-rule="evenodd" d="M212.5 136.8H200.2C200.2 135.4 195.6 128.3 186.5 115.3C177 101.6 171.5 92.3 170.2 87.2H169.4C170.2 94.4 170.6 101 170.6 106.9C170.6 115.1 170.8 125 171.3 136.8H159.1C159.6 126.5 159.8 115.3 159.8 103C159.8 90.9 159.6 80.6 159.1 72.2H173.8C173.8 74 177.9 81 186.1 93.2C194.8 106.2 199.8 115 201.1 119.7H201.8C201 112.3 200.6 105.7 200.6 99.8C200.6 90.8 200.4 81.6 199.9 72.2H212.3C211.8 80.4 211.6 90.7 211.6 103C211.8 115.4 212 126.7 212.5 136.8Z" fill="#231F20"></path>
  <path fill-rule="evenodd" clip-rule="evenodd" d="M360.7 88.9C360.7 96.8 357.8 102.7 351.9 106.4C346 110.2 338.8 112.1 330.3 112.1C328.7 112.1 327.6 112.1 327 112C327 118.2 327.2 126.4 327.6 136.6H313.6C314 127 314.3 115.8 314.3 102.8C314.3 90.9 314.1 80.6 313.6 72H322.2C323.4 72 325.8 72 329.3 71.9C332.8 71.8 335.8 71.8 338.3 71.8C344.6 71.8 349.9 73.2001 354.2 76.1001C358.5 78.8001 360.7 83.1 360.7 88.9ZM347.9 91.7C347.9 84.6 343.2 81.1001 333.8 81.1001C331.4 81.1001 329 81.4 326.4 81.8C326.8 88.1 326.9 95.1001 326.9 103.1C327.7 103.2 328.7 103.2 329.8 103.2C341.8 103.1 347.9 99.3 347.9 91.7Z" fill="#231F20"></path>
  <path fill-rule="evenodd" clip-rule="evenodd" d="M417.2 88.9C417.2 96.8 414.3 102.7 408.4 106.4C402.5 110.2 395.3 112.1 386.8 112.1C385.2 112.1 384.1 112.1 383.5 112C383.5 118.2 383.7 126.4 384 136.6H370C370.4 127 370.6 115.8 370.6 102.8C370.6 90.9 370.4 80.6 370 72H378.6C379.8 72 382.2 72 385.7 71.9C389.2 71.8 392.2 71.8 394.7 71.8C401 71.8 406.3 73.2001 410.6 76.1001C415.1 78.8001 417.2 83.1 417.2 88.9ZM404.4 91.7C404.4 84.6 399.7 81.1001 390.3 81.1001C387.9 81.1001 385.5 81.4 382.8 81.8C383.2 88.1 383.3 95.1001 383.3 103.1C384.1 103.2 385.1 103.2 386.2 103.2C398.4 103.1 404.4 99.3 404.4 91.7Z" fill="#231F20"></path>
  <path fill-rule="evenodd" clip-rule="evenodd" d="M478.9 136.7H464.2C460.4 125 457.4 117.7 455.4 115C453.3 112.3 450 110.9 445.5 110.9C443.6 110.9 441.7 110.9 440 111C440 119.5 440.1 128.1 440.4 136.8H426.6C427 126.8 427.2 115.5 427.2 103C427.2 90.9 427 80.7 426.6 72.2H435.2C436.2 72.2 438.3 72.2 441.4 72.1C444.6 72 447.5 72 450.2 72C465.4 72 473 77.2 473 87.6C473 95.8 468.7 101.6 460 104.8V105.5C463.3 106.4 466.3 109 468.8 113.3C471.3 117.4 474.7 125.2 478.9 136.7ZM460.3 91C460.3 84.4 456.1 81.1 447.6 81.1C444.5 81.1 441.7 81.3 439.4 81.8C439.8 86.9 439.9 93.6 439.9 101.9C441.7 102 443.3 102 444.5 102C455 101.9 460.3 98.3 460.3 91Z" fill="#231F20"></path>
  <path fill-rule="evenodd" clip-rule="evenodd" d="M547.1 103.2C547.1 113.4 544 121.8 537.8 128.5C531.6 135.2 523.9 138.5 514.7 138.5C506 138.5 498.6 135.4 492.7 129.3C486.8 123.2 483.9 115.4 483.9 105.9C483.9 95.7 487 87.3 493.2 80.6C499.4 73.9 507.1 70.6 516.3 70.6C525 70.6 532.4 73.7 538.3 79.8C544.1 85.9 547.1 93.7 547.1 103.2ZM533.4 104.6C533.4 97.7 531.6 92.1 528.1 87.8C524.6 83.5 520.2 81.3 515 81.3C510.2 81.3 506.1 83.5 502.7 87.8C499.3 92.1 497.6 97.6 497.6 104.2C497.6 111.1 499.4 116.7 502.9 121C506.5 125.3 510.8 127.5 516 127.5C520.8 127.5 524.9 125.3 528.3 121C531.7 116.7 533.4 111.2 533.4 104.6Z" fill="#231F20"></path>
  <path fill-rule="evenodd" clip-rule="evenodd" d="M608.8 72C608.8 74.7 605 85.5 597.5 104.4C589.9 123.3 586.2 134 586.2 136.7H572.5C572.5 134.2 569 123.3 562 104.3C555 85.2 551.5 74.5 551.5 72.1H567.2C567.2 74.5 569.4 83.1 573.9 97.8C578.3 112.5 580.6 120.9 580.6 122.9H581.4C581.4 121 583.6 112.9 588.1 98.7C592.6 84.5 594.8 75.6 594.8 72.1H608.8V72Z" fill="#231F20"></path>
  <path fill-rule="evenodd" clip-rule="evenodd" d="M659.2 125.7L658.8 136.6H616.5C616.9 126.6 617.1 115.3 617.1 102.8C617.1 90.7 616.9 80.5 616.5 72H656.8L656.3 82.9C646.4 82.4 637.4 82.1 629.3 82.1C629.6 86.7 629.8 92.1 629.8 98.4C636.7 98.4 644.1 98.2 652 97.9V108.3C644.2 108 636.9 107.8 629.8 107.8C629.8 114.5 629.9 120.8 630.2 126.7C639.2 126.6 648.9 126.3 659.2 125.7Z" fill="#231F20"></path>
  <path fill-rule="evenodd" clip-rule="evenodd" d="M82.7998 114.7L81.3998 133.5C73.5998 135.4 65.9998 136.3 58.3998 136.3C39.5998 136.3 25.2998 131.1 15.4998 120.8C5.6998 110.5 0.799805 97.9 0.799805 83.1C0.799805 67.8 5.9998 54.4 16.4998 43.1C26.8998 31.7 41.2998 26.1 59.4998 26.1C66.1998 26.1 72.4998 26.9 78.4998 28.4L75.5998 47.3C69.0998 45.2 62.8998 44.2 56.9998 44.2C45.8998 44.2 37.5998 47.7 32.0998 54.7C26.6998 61.7 23.8998 70.3 23.8998 80.3C23.8998 90.6 27.0998 99.5 33.5998 107C39.9998 114.5 49.0998 118.3 60.6998 118.3C67.3998 118.3 74.7998 117.1 82.7998 114.7Z" fill="#231F20"></path>
</svg>
